<svg xmlns="http://www.w3.org/2000/svg" version="1.1" xmlns:xlink="http://www.w3.org/1999/xlink" xmlns:svgjs="http://svgjs.com/svgjs" width="337" height="1262"><svg version="1.1" id="SvgjsSvg1011" width="337" height="1262" viewBox="0 0 337 1262" sodipodi:docname="final_logo.svg" inkscape:version="1.2.2 (732a01da63, 2022-12-09)" xmlns:inkscape="http://www.inkscape.org/namespaces/inkscape" xmlns:sodipodi="http://sodipodi.sourceforge.net/DTD/sodipodi-0.dtd" xmlns="http://www.w3.org/2000/svg" xmlns:svg="http://www.w3.org/2000/svg">
  <defs id="SvgjsDefs1010"></defs>
  <sodipodi:namedview id="SvgjsSodipodi:namedview1009" pagecolor="#ffffff" bordercolor="#000000" borderopacity="0.25" inkscape:showpageshadow="2" inkscape:pageopacity="0.0" inkscape:pagecheckerboard="0" inkscape:deskcolor="#d1d1d1" showgrid="false" inkscape:zoom="0.66323296" inkscape:cx="165.85424" inkscape:cy="828.51732" inkscape:window-width="850" inkscape:window-height="1040" inkscape:window-x="467" inkscape:window-y="5" inkscape:window-maximized="0" inkscape:current-layer="g15"></sodipodi:namedview>
  <g inkscape:groupmode="layer" inkscape:label="Image" id="SvgjsG1008">
    <g id="SvgjsG1007" transform="translate(0.4922299,3.0155317)">
      <path style="fill:#f1c6b8" d="m 52.739825,1259.1631 c -4.642215,-1.8366 -35.497814,-32.0444 -38.470753,-37.6631 -0.582027,-1.1 -1.56438,-7.4 -2.183006,-14 -1.947854,-20.7813 -2.8591333,-29.3547 -5.6865785,-53.5 -2.5681155,-21.9307 -2.756808,-26.3047 -2.8256835,-65.5 -0.055336,-31.4902 0.2588071,-43.5014 1.2553996,-48 5.9539574,-26.8761 10.9523414,-46.21753 18.3245384,-70.90766 7.343544,-24.59417 18.805535,-65.6193 22.88299,-81.90353 C 47.715326,880.98496 50.391379,871 51.983515,865.5 53.575652,860 56.247697,850.04548 57.921393,843.37885 66.497059,809.22042 89.434001,730.16758 96.18564,711.5 l 3.255095,-9 0.529632,-47.07847 0.529633,-47.07846 4.19888,-8.42154 c 6.63676,-13.31112 20.43442,-27.70007 37.01304,-38.59921 C 156.79281,551.40781 158.28428,551 179.46314,551 c 12.97108,0 20.56622,0.46438 25.72148,1.57264 22.79988,4.90146 41.33482,8.66966 48.87296,9.93598 38.30457,6.43476 56.24935,24.0795 72.2794,71.07091 5.54976,16.26886 7.36417,25.54919 8.03246,41.0843 l 0.52327,12.16382 -3.79863,7.83618 C 329.00483,698.97372 323.7908,708.8 319.50734,716.5 c -16.37416,29.43444 -34.6455,68.5968 -43.85603,94 -4.92303,13.57803 -20.40167,63.23683 -26.02693,83.5 -4.76226,17.15447 -14.66742,59.2753 -19.63592,83.5 -7.07246,34.4829 -16.97796,76.2938 -20.84825,88 -1.09104,3.3 -3.31491,9.7059 -4.94194,14.2353 -2.12696,5.9211 -3.14342,10.9792 -3.61728,18 -2.8178,41.7491 -5.82573,61.1592 -12.74835,82.2647 -3.3613,10.2479 -9.26788,22.7902 -14.1279,30 -12.09432,17.9417 -31.18734,32.1408 -53.118,39.5027 -20.53616,6.8937 -60.468387,12.5795 -67.846915,9.6604 z M 195.5,288.09247 C 163.7285,281.7316 145.67982,268.16652 132.84224,241 c -1.94928,-4.125 -3.82867,-9.64526 -4.17642,-12.26723 -0.34776,-2.62198 -1.30155,-6.06145 -2.11954,-7.64327 -0.89862,-1.73775 -1.89959,-8.36025 -2.52908,-16.73276 -1.04412,-13.88704 -3.09517,-23.48179 -5.65108,-26.43548 C 117.61476,177.05295 117,175.64555 117,174.7937 c 0,-0.85184 -0.58562,-2.03484 -1.30139,-2.62887 -0.71576,-0.59403 -3.00549,-4.36163 -5.08829,-8.37244 -2.0828,-4.01082 -5.60157,-10.44239 -7.81948,-14.29239 -7.021622,-12.18861 -14.790302,-27.57183 -14.805393,-29.31704 -0.008,-0.92563 -0.700163,-3.65169 -1.538131,-6.05792 -1.156597,-3.32118 -1.57461,-9.70417 -1.735447,-26.500002 -0.181138,-18.915874 0.02838,-22.591492 1.444471,-25.340929 0.910986,-1.76874 1.965495,-5.14374 2.343353,-7.5 0.837297,-5.221249 7.387742,-17.602891 12.678987,-23.965811 3.90556,-4.696575 18.03246,-14.839012 23.43546,-16.825537 1.58722,-0.583576 4.68586,-1.90239 6.88586,-2.930697 5.25479,-2.4561555 11.52383,-4.0638522 29.5,-7.5652799 12.54558,-2.4436481 49.49374,-1.6720054 59.5,1.2426257 11.35651,3.3079329 13.85297,4.6937049 24.02875,13.3382332 6.17926,5.249401 11.0645,12.013421 14.38873,19.922357 1.27145,3.025 2.74509,6.038214 3.27478,6.696032 0.52968,0.657817 1.55847,3.582817 2.2862,6.5 C 265.2062,54.113214 267.30819,60.325 269.14955,65 l 3.34793,8.5 10e-4,92 c 0.001,91.79063 -0.004,92.01049 -2.13066,96.61018 -3.03052,6.55335 -12.01935,15.15062 -19.56195,18.7098 -10.64057,5.02104 -21.59252,7.28162 -37.30613,7.7003 -7.7,0.20516 -15.8,0.0127 -18,-0.42781 z" id="SvgjsPath1006"></path>
      <path style="fill:#ecac98" d="m 51.394656,1257.0989 c -5.016586,-3.059 -34.047522,-31.8394 -35.675677,-35.3678 -0.831649,-1.8022 -2.212578,-10.7489 -3.122696,-20.2311 -0.897429,-9.35 -2.30359,-22.85 -3.1248027,-30 C 8.6502676,1164.35 7.290487,1152.425 6.4497457,1145 4.4366149,1127.2211 3.4058357,1068.4702 4.8235771,1052.3141 6.3054486,1035.4271 12.958732,1007.336 25.029975,967 32.943098,940.55831 47.195498,888.57732 59.028895,843 69.790526,801.55068 87.426599,740.72132 96.139547,715 l 4.234303,-12.5 0.56308,-47.05483 0.56307,-47.05483 3.70058,-7.48465 c 7.98836,-16.15695 27.5046,-34.547 47.80561,-45.047 L 159.5,552.5 l 18.78597,-0.31097 c 18.67437,-0.30913 18.89715,-0.28722 37.5,3.68736 10.29272,2.19909 23.88903,4.95629 30.21403,6.1271 27.314,5.05608 39.08005,9.75331 50.38965,20.11651 10.7865,9.88386 17.78116,21.76551 26.42062,44.88 7.52832,20.14171 9.21205,27.44707 10.25626,44.5 l 0.9185,15 -3.45542,7 c -1.90049,3.85 -6.67341,12.85 -10.60649,20 -18.14748,32.9905 -35.58201,70.00139 -44.76177,95.02253 -3.89348,10.61242 -21.01362,65.25286 -26.03091,83.07997 -3.83516,13.62685 -18.22465,75.03368 -21.65155,92.3975 -7.48689,37.9355 -17.4563,77.2117 -23.60603,93 -4.36615,11.2093 -4.87045,13.326 -4.88407,20.5 -0.008,4.4 -0.66716,15.425 -1.464,24.5 -4.3983,50.091 -14.57889,78.6469 -35.95263,100.8449 -18.16236,18.8628 -40.42859,28.3736 -80.07216,34.2022 -17.124211,2.5176 -26.036438,2.533 -30.105344,0.052 z M 190.5,285.43599 c -15.07613,-4.29581 -19.59715,-5.97109 -25.5,-9.4491 -8.67321,-5.11032 -17.16082,-12.86776 -22.27136,-20.35539 -5.09473,-7.46446 -12.71794,-23.28497 -12.72413,-26.40648 -0.002,-1.25124 -0.9123,-4.85124 -2.02182,-8 -1.39519,-3.9595 -2.18591,-9.42566 -2.56402,-17.72502 -0.65795,-14.4416 -2.55335,-21.01573 -9.75034,-33.8186 -2.84258,-5.05674 -5.91145,-10.54122 -6.81971,-12.18773 -22.785936,-41.30701 -21.976607,-38.8434 -22.611983,-68.831194 -0.358707,-16.929907 -0.157725,-21.618105 1.071745,-25 0.832285,-2.289362 2.044411,-6.508918 2.693612,-9.37679 1.251535,-5.528709 7.058647,-16.000303 12.759936,-23.009175 3.70627,-4.556307 18.10255,-14.661142 23.45184,-16.460994 1.80743,-0.608136 3.85274,-1.548842 4.54515,-2.090457 2.04484,-1.599521 13.77277,-4.5760221 28.51873,-7.2379401 18.61164,-3.359746 43.54961,-3.5479666 55.99885,-0.4226542 15.97508,4.0104583 22.86003,7.9125973 32.47505,18.4057003 6.79322,7.413599 12.19187,18.563727 19.13949,39.529834 l 4.14218,12.5 -0.0166,90.78984 c -0.0165,90.41418 -0.0254,90.80726 -2.13083,95 -3.4126,6.79568 -6.61381,10.45558 -12.6824,14.49961 -7.37557,4.91497 -11.73568,6.69082 -22.53234,9.17726 -10.86393,2.50194 -35.11238,2.76553 -43.17104,0.46928 z" id="SvgjsPath1005"></path>
      <path style="fill:#e58c71" d="m 45.256347,1251.1305 c -4.265991,-3.7783 -12.738516,-11.9908 -18.827834,-18.25 L 15.357025,1221.5 l -1.235593,-12 c -0.679576,-6.6 -2.539493,-23.925 -4.1331482,-38.5 -1.5936556,-14.575 -3.4114439,-32.125 -4.0395295,-39 -1.5580735,-17.0546 -1.5792826,-76.2359 -0.031,-86.5 C 8.260678,1029.968 15.12589,1002.6168 25.49593,967.5 35.45259,933.78308 46.104174,894.99634 58.587542,847 69.657638,804.43744 87.010607,744.30908 97.571756,711.91897 L 102,698.33793 l 0.0237,-44.41896 c 0.0234,-43.8825 0.0512,-44.48569 2.29657,-49.94313 6.50087,-15.80041 27.25286,-36.14603 48.17969,-47.23623 l 8,-4.23961 19.5,0.0635 c 17.43902,0.0568 20.66261,0.34043 30.5,2.68344 6.05,1.44096 21.53588,4.68922 34.41307,7.21837 31.94137,6.27345 41.86406,10.47231 53.71566,22.73014 9.90621,10.24576 16.4983,22.25952 24.83759,45.2653 6.35766,17.53901 8.29013,26.70508 9.08718,43.10205 l 0.68358,14.06283 -13.54308,25.05201 c -21.4449,39.66892 -30.64463,58.85931 -41.86165,87.32236 -4.91219,12.46462 -22.75254,68.07983 -29.35308,91.5048 -4.09542,14.53442 -14.59593,59.48583 -21.48978,91.9952 -12.05236,56.8353 -17.63582,78.6203 -24.09201,94 l -4.19787,10 -0.73399,17 c -1.67246,38.7362 -7.36934,68.1608 -17.44845,90.1219 -9.61131,20.9418 -29.1705,40.1714 -50.01713,49.1743 C 111.78722,1251.8776 82.315999,1258 62.128009,1258 H 53.012693 Z M 198.5,286.35427 c -8.55621,-1.387 -22.94278,-5.9082 -30.26074,-9.5099 -8.92386,-4.39208 -20.07397,-14.26863 -25.86307,-22.90902 -4.82763,-7.20537 -10.22439,-19.15669 -11.88628,-26.32263 -0.83847,-3.61541 -2.01087,-7.81981 -2.60533,-9.3431 C 127.29012,216.74633 126.42822,209.425 125.96925,202 124.98042,186.00301 124.21029,183.58539 114.70903,166.6515 103.83634,147.27334 102.78969,145.37132 96.549818,133.65161 89.462484,120.3402 88.320104,115.80183 86.946469,95.5 84.12189,53.753774 96.686786,28.88971 127.67571,14.902875 142.74637,8.1007436 165.56529,3.999623 189.5,3.7915308 c 15.43651,-0.1342074 17.95061,0.097077 27.33608,2.5147748 11.83542,3.0488042 18.41164,6.3146214 25.44288,12.6351984 9.6443,8.669526 15.13612,18.585341 22.74003,41.058496 6.45276,19.070978 6.04538,11.420514 5.75088,108 l -0.26987,88.5 -2.38268,4.94416 c -5.27607,10.94805 -17.34063,18.94724 -34.09021,22.60289 -8.82773,1.92668 -29.5663,3.27349 -35.52711,2.30722 z" id="SvgjsPath1004"></path>
      <path style="fill:#e07150" d="m 53.255281,1256.9708 c -1.234596,-0.4963 -9.899299,-8.4105 -19.254896,-17.5869 -19.161256,-18.7944 -18.356363,-17.3698 -19.99138,-35.3839 -0.574078,-6.325 -1.685517,-17.35 -2.469864,-24.5 -4.526634,-41.2642 -5.4599268,-53.3682 -6.0142749,-78 C 5.1906615,1086.65 5.3334981,1067.075 5.8422807,1058 7.131062,1035.0124 9.4865253,1025.099 33.166773,943 40.455846,917.72891 43.860047,905.16602 59.451137,846 71.435186,800.5222 87.20951,745.81266 97.510509,714 l 4.371331,-13.5 0.30908,-45.57723 0.30908,-45.57722 4.32412,-8.72461 c 7.49832,-15.12906 27.29614,-33.65559 46.68904,-43.69098 L 161.10762,553 h 17.95354 c 16.13791,0 19.29277,0.29484 31.19619,2.91547 7.28346,1.60351 20.44265,4.3143 29.24265,6.02399 35.3183,6.86172 44.32088,10.28418 56.14362,21.34377 11.64493,10.89326 20.19665,26.30756 28.88578,52.06602 5.83316,17.29209 7.3927,25.9283 7.43108,41.15075 l 0.0302,12 -10.01134,18.5 c -21.58675,39.89025 -34.7895,67.43986 -45.34277,94.61477 -5.56706,14.33533 -23.96402,72.22641 -30.04197,94.53532 -3.50211,12.85438 -15.99725,67.40895 -23.55668,102.84991 -9.26659,43.4447 -18.34344,76.2939 -23.9762,86.77 -0.51159,0.9515 -1.41884,11.2989 -2.01612,22.9942 -2.74918,53.832 -12.50806,86.1936 -33.31784,110.4858 -9.54927,11.1473 -27.21736,22.4456 -44.11508,28.2105 -19.78528,6.7501 -59.179546,12.396 -66.357449,9.5103 z M 192,284.05671 c -11.39468,-2.58935 -19.01882,-5.33587 -26.63466,-9.59489 -6.97006,-3.89788 -17.37553,-13.72344 -22.36897,-21.12231 -4.37457,-6.48188 -10.71425,-20.23053 -11.50949,-24.96023 -0.35873,-2.13361 -1.48767,-6.57928 -2.50875,-9.87928 -1.09794,-3.54839 -2.11925,-10.90321 -2.49953,-18 -0.66472,-12.40466 -2.2467,-18.61414 -6.84011,-26.84828 C 114.29092,164.06568 108.2598,153.31161 104.7579,147.11821 90.242267,121.44613 88.428683,115.39112 87.314252,88.879085 86.737327,75.154166 86.871216,73.543307 89.499058,62.593012 93.789377,44.715128 101.13098,32.901108 113.39566,24.138895 130.95301,11.595456 158.1473,4.6407632 190,4.5480344 c 26.03906,-0.075804 39.88929,4.0883535 52.86135,15.8930916 8.73934,7.952901 14.13238,18.327764 22.24917,42.801792 L 270,77.985835 v 87.472135 c 0,95.58692 0.20151,92.07859 -5.79515,100.8961 -3.07138,4.51617 -11.86265,10.75191 -19.28021,13.67563 -13.70281,5.40115 -38.55586,7.29221 -52.92464,4.02701 z" id="SvgjsPath1003"></path>
      <path style="fill:#da562a" d="m 47.275677,1251.0974 c -3.726622,-3.2464 -12.111796,-11.2894 -18.63372,-17.8733 l -11.858042,-11.9708 -1.856217,-16.8766 C 13.906778,1195.0945 11.649392,1174.9 9.9112832,1159.5 7.1246222,1134.8096 6.6925058,1127.2448 6.2554877,1095.5 5.933959,1072.1443 6.156336,1055.8581 6.8886235,1049.131 8.4902843,1034.4175 15.327732,1006.3609 26.538516,968.5 37.427524,931.72584 43.680491,908.9376 60.426235,845 71.310022,803.44418 85.325574,754.73512 96.553533,719.44473 L 103,699.18296 v -42.87355 c 0,-32.52179 0.32239,-44.1164 1.33524,-48.02102 4.03969,-15.57343 27.27567,-39.53417 48.86482,-50.38898 L 160.95561,554 h 19.12785 c 13.3415,0 20.83532,0.43459 24.7722,1.43662 3.10438,0.79013 16.21934,3.5091 29.14434,6.04215 31.17221,6.10913 37.66544,7.81033 46.78605,12.25773 18.84593,9.18968 31.2761,27.01947 43.09264,61.81195 5.55876,16.36716 6.91772,23.71502 7.29643,39.45155 L 331.5,688.5 324.1283,702 c -25.08309,45.93536 -34.61445,65.38618 -46.06764,94.01116 -5.62507,14.05873 -22.47482,65.98713 -30.49755,93.98884 -3.90626,13.63404 -15.40167,62.46953 -21.06744,89.5 -8.07144,38.5075 -14.40893,65.9746 -18.11236,78.5 -3.15549,10.6722 -9.3052,26.8337 -10.4891,27.5654 -0.49181,0.3039 -0.89992,4.9136 -0.90691,10.2436 -0.0155,11.8529 -2.4263,40.4755 -4.43797,52.691 -9.07439,55.1028 -32.04023,84.909 -76.54933,99.3495 -13.18861,4.2789 -41.927442,9.123 -54.224323,9.1399 l -7.724324,0.011 -6.775676,-5.9026 z M 192.5,283.15125 C 169.03397,277.75089 155.97431,269.68064 144.51692,253.5 c -5.09695,-7.19813 -11.16865,-20.4189 -12.46178,-27.13481 -0.51524,-2.67585 -1.63358,-6.82056 -2.48521,-9.21045 -0.88537,-2.48456 -1.82381,-9.76417 -2.19152,-17 -0.75196,-14.79702 -1.99983,-18.59412 -11.61399,-35.33974 -6.45506,-11.24322 -8.42853,-14.83693 -18.058037,-32.88393 C 91.008432,119.3782 89.209155,110.95134 88.326361,88 87.816578,74.746407 87.984969,72.640409 90.285326,63.5 93.360679,51.280163 94.275501,48.866922 98.246101,42.5 105.89999,30.226855 114.43632,22.940673 128.86478,16.365412 141.79689,10.472058 171.66614,4.9881222 190.68322,5.0156676 c 18.82875,0.027273 36.13831,4.5469307 46.45622,12.1300734 12.10661,8.897746 18.15881,19.277628 26.88932,46.116835 L 268.98533,78.5 l 0.007,86.4344 c 0.008,96.18256 0.14709,94.0375 -6.60128,101.92145 -4.0526,4.73455 -12.08398,10.11575 -18.84286,12.62512 -13.31982,4.94525 -37.84608,6.70863 -51.04853,3.67028 z" id="SvgjsPath1002"></path>
      <path style="fill:#d8470e" d="m 45.870546,1248.6272 c -12.586865,-11.0866 -27.65117,-26.8796 -28.294322,-29.663 -0.313166,-1.3553 -1.454095,-11.0142 -2.535397,-21.4642 -2.387252,-23.0711 -4.822528,-45.2342 -6.1532485,-56 C 7.2840659,1128.5273 6.563724,1059.8166 7.9114327,1048.3892 9.6245012,1033.8639 16.688084,1005.1218 27.544829,968.5 38.431245,931.77808 45.59023,905.67993 60.462025,848.5 70.802357,808.7429 86.603443,753.89446 98.076489,717.93335 L 104,699.3667 l 0.0327,-43.93335 c 0.029,-39.07937 0.22459,-44.48578 1.76994,-48.93335 5.32364,-15.32157 26.64709,-36.7172 47.35011,-47.51039 L 160.80539,555 h 19.38721 c 13.47015,0 21.05365,0.43164 24.8473,1.41425 3.00306,0.77785 15.8101,3.46679 28.4601,5.97544 34.30289,6.80268 36.23336,7.30945 46.12986,12.10966 19.7349,9.57223 31.33725,25.97529 43.31103,61.23187 5.49602,16.18293 6.85712,23.57485 7.23071,39.26878 l 0.32136,13.5 -9.37492,17 c -31.5838,57.27245 -43.80901,85.34348 -60.9714,140 -11.53622,36.73904 -16.87733,55.33574 -20.55221,71.55882 -1.42543,6.29265 -4.18035,18.19118 -6.12206,26.44118 -1.94171,8.25 -5.52373,24.45 -7.96004,36 -6.78063,32.1454 -13.28981,60.9922 -16.11793,71.4299 -3.11343,11.4907 -9.85885,30.6038 -11.90031,33.7195 -1.06005,1.6178 -1.49409,5.0344 -1.49409,11.7609 0,5.2144 -0.46628,15.2428 -1.03619,22.2852 -4.00191,49.4528 -14.09303,79.3889 -33.88525,100.5234 -18.41563,19.6645 -40.61666,29.3259 -81.004695,35.2514 C 74.33949,1255.3116 66.181236,1256 61.944411,1256 H 54.241092 Z M 194.5,281.83738 c -13.98348,-2.62591 -26.94685,-8.08483 -35.02119,-14.74755 -11.34528,-9.3618 -22.49328,-26.67532 -25.56748,-39.70783 -0.63338,-2.6851 -1.95143,-7.357 -2.92901,-10.382 -1.08917,-3.3703 -2.03158,-10.47568 -2.4338,-18.34981 -0.78176,-15.30434 -1.38997,-17.07981 -12.4608,-36.37539 C 111.63947,154.52185 108,147.97106 108,147.71747 c 0,-0.25359 -2.49028,-4.85835 -5.53395,-10.23281 C 94.510535,123.43698 93.25102,119.9023 91.425261,106.5 87.422558,77.117468 90.491482,57.347286 101.70839,40.255487 c 2.97587,-4.534481 6.95888,-9.371981 8.85114,-10.75 1.89226,-1.378018 5.12368,-3.742987 7.18094,-5.255487 6.49496,-4.77511 20.06454,-10.193869 30.68042,-12.251652 35.27112,-6.836958 54.73623,-6.8134072 76.16011,0.09215 7.15853,2.307408 15.82423,8.915873 22.39477,17.078268 4.41078,5.479374 10.76197,18.831843 13.56439,28.517199 0.76611,2.647722 2.60282,8.18904 4.08158,12.31404 l 2.68865,7.5 0.0497,87.000005 c 0.0387,67.86931 -0.23222,87.98952 -1.23223,91.49999 -2.65137,9.30754 -10.28215,16.76481 -22.04631,21.54501 -11.34281,4.609 -36.36149,6.77492 -49.5815,4.29237 z" id="SvgjsPath1001"></path>
      <path style="fill:#d7460e" d="M 42.471944,1244.1092 C 31.945473,1234.5333 20.830293,1223.0105 18.82483,1219.5949 17.477965,1217.301 16.684939,1206 17.870834,1206 18.543736,1206 19,1207.8325 19,1210.5352 c 0,6.1181 2.918897,10.5071 13.882699,20.8748 2.960485,2.7995 8.272985,7.9025 11.805556,11.34 3.532571,3.4375 6.815195,6.25 7.29472,6.25 0.479526,0 1.795824,1.1746 2.925108,2.6103 1.965959,2.4993 2.362271,2.5859 9.32258,2.0377 3.998136,-0.315 9.744337,-1.0285 12.769337,-1.5856 3.025,-0.5572 9.1,-1.5867 13.5,-2.2877 4.4,-0.7011 8.45,-1.5684 9,-1.9273 0.55,-0.359 3.25,-0.9782 6,-1.3762 2.75,-0.3979 5.45,-1.0648 6,-1.4819 0.55,-0.4171 2.575,-1.0873 4.5,-1.4893 1.925,-0.402 3.95,-1.077 4.5,-1.5 0.55,-0.423 2.4625,-1.0818 4.25,-1.464 1.7875,-0.3822 3.25,-1.0888 3.25,-1.5701 0,-0.4814 1.54383,-1.1649 3.43073,-1.5189 1.8869,-0.354 3.67278,-1.2744 3.96862,-2.0453 0.29583,-0.7709 1.227,-1.4017 2.06927,-1.4017 0.84226,0 1.53138,-0.45 1.53138,-1 0,-0.55 0.58347,-1 1.29661,-1 1.8202,0 4.7541,-2.347 14.06332,-11.25 4.45698,-4.2625 8.4493,-7.75 8.87183,-7.75 0.42253,0 0.76824,-0.675 0.76824,-1.5 0,-0.825 0.45,-1.5 1,-1.5 0.55,0 1,-0.6891 1,-1.5314 0,-0.8422 0.63439,-1.7748 1.40975,-2.0723 0.77537,-0.2976 1.68394,-1.6335 2.01905,-2.9687 0.33512,-1.3352 1.05073,-2.4276 1.59025,-2.4276 0.53952,0 0.98665,-0.5625 0.99362,-1.25 0.007,-0.6875 1.3183,-3.8243 2.91408,-6.9706 1.59578,-3.1463 3.20084,-7.0838 3.56679,-8.75 0.36595,-1.6662 1.07962,-3.0294 1.58592,-3.0294 0.50629,0 0.92054,-0.8339 0.92054,-1.8532 0,-1.0193 1.125,-4.9548 2.5,-8.7457 1.375,-3.7908 2.5,-7.9069 2.5,-9.1468 0,-1.2399 0.45,-2.2543 1,-2.2543 1.53073,0 1.21733,2.7369 -1.37493,12.007 -12.07429,43.1787 -37.64024,67.7216 -81.36107,78.1053 -14.252009,3.3848 -31.35917,5.8453 -40.792056,5.867 L 54.443888,1255 Z M 16.766719,1203 c -0.400056,-1.375 -1.169132,-7.45 -1.709057,-13.5 -1.021335,-11.4443 -3.26544,-31.2305 -5.1038071,-45 -0.5874436,-4.4 -1.3242926,-25.8065 -1.6374423,-47.57 -0.617518,-42.9167 0.051697,-53.9643 4.1386354,-68.3217 1.269434,-4.4596 2.604513,-9.9083 2.966843,-12.1083 0.729408,-4.4288 3.751331,-15.8397 9.798642,-37 4.111274,-14.38586 6.603426,-19.83456 5.25992,-11.5 -0.398962,2.475 -1.076157,4.725 -1.504878,5 -0.42872,0.275 -1.100534,2.64303 -1.492921,5.2623 -0.392386,2.61926 -1.080011,4.98885 -1.528055,5.26576 -0.448044,0.27691 -1.12297,2.97137 -1.499835,5.9877 C 24.077898,992.53209 23.429378,995 23.013607,995 c -0.41577,0 -1.051965,2.23151 -1.413767,4.9589 -0.361802,2.7274 -1.050498,5.2016 -1.530436,5.4982 -0.479937,0.2966 -1.192016,3.3526 -1.582397,6.7911 -0.390381,3.4385 -1.052894,6.7018 -1.472251,7.2518 -0.419357,0.55 -1.081723,3.2036 -1.471925,5.897 -0.390201,2.6933 -1.110324,5.6183 -1.600273,6.5 -3.267037,5.879 -4.8952448,39.2849 -3.733639,76.603 0.776959,24.9608 2.717944,51.1088 3.934222,53 0.353727,0.55 0.973011,6.85 1.376187,14 0.403175,7.15 1.146513,13.2641 1.651861,13.5868 0.505348,0.3228 0.784735,4.1478 0.62086,8.5 -0.200538,5.326 -0.535771,7.0958 -1.02533,5.4132 z m 171.793361,-52 c 0.35332,-3.575 1.09813,-6.95 1.65513,-7.5 0.68317,-0.6746 0.7812,0.9525 0.30123,5 -1.00868,8.506 -2.77271,10.7602 -1.95636,2.5 z m 3.09987,-22 c 0.32986,-5.775 1.00615,-11.175 1.50286,-12 1.12846,-1.8743 -0.0767,17.6667 -1.26429,20.5 -0.47539,1.1342 -0.57867,-2.5457 -0.23857,-8.5 z m 2.63971,-28 c 0,-3.025 0.18747,-4.2625 0.41659,-2.75 0.22913,1.5125 0.22913,3.9875 0,5.5 -0.22912,1.5125 -0.41659,0.275 -0.41659,-2.75 z m 0.7223,-15.2636 c -0.0121,-0.9699 0.40345,-2.5449 0.92341,-3.5 0.51995,-0.955 1.21534,-3.4239 1.54531,-5.4864 0.32997,-2.0625 0.99,-3.75 1.46674,-3.75 0.47673,0 1.17049,-1.7976 1.54169,-3.9948 0.37121,-2.1971 1.03383,-4.2165 1.47251,-4.4877 0.43868,-0.2711 1.10053,-2.513 1.47077,-4.9819 0.37024,-2.4689 1.05501,-4.725 1.5217,-5.0134 0.4667,-0.2884 1.15786,-2.7734 1.53591,-5.5222 0.37805,-2.7488 1.09521,-5.2498 1.59368,-5.5579 0.49848,-0.3081 0.90632,-1.5141 0.90632,-2.6801 0,-2.2004 1.64325,-8.0524 3.06024,-10.8983 0.4481,-0.9 1.12712,-4.3976 1.50894,-7.7724 0.38182,-3.3748 1.08495,-6.3775 1.56252,-6.6727 2.02081,-1.2489 0.65331,6.2235 -5.69817,31.1365 -4.42438,17.3542 -14.34742,44.3323 -14.41157,39.1813 z M 216.57139,1008 c 0.3821,-3.025 1.04148,-5.95 1.46529,-6.5 0.42382,-0.55 1.09447,-3.7 1.49034,-7 0.39587,-3.3 1.10375,-6.48347 1.57307,-7.07438 0.46932,-0.59091 1.15341,-4.30341 1.52021,-8.25 0.36679,-3.94659 1.0081,-7.17562 1.42511,-7.17562 0.41702,0 1.07753,-2.8125 1.46779,-6.25 0.39027,-3.4375 1.05393,-6.7 1.4748,-7.25 0.42087,-0.55 1.07724,-3.58041 1.45859,-6.73424 0.38136,-3.15383 1.05263,-5.95626 1.4917,-6.22762 0.43907,-0.27136 1.11071,-3.25461 1.49253,-6.62944 0.38182,-3.37483 1.0773,-6.8724 1.54551,-7.77238 0.46821,-0.89997 1.37063,-4.21615 2.00538,-7.36927 1.1121,-5.52436 3.04423,-8.80036 2.99379,-5.07607 -0.0135,0.99496 -1.80729,9.45902 -3.98626,18.80902 -3.72128,15.96815 -7.67819,33.96783 -13.62961,62 -2.73467,12.8808 -4.97717,17.9125 -3.78824,8.5 z M 30.995054,961.25 c -0.0027,-0.9625 0.662673,-3.775 1.478651,-6.25 1.955593,-5.93165 11.712495,-40.95379 16.158358,-58 5.298423,-20.31508 6.02799,-23.02571 7.80534,-29 0.899938,-3.025 2.772993,-10.225 4.162346,-16 2.26391,-9.4102 9.4289,-35.57531 19.031708,-69.5 1.868213,-6.6 4.253234,-15.15 5.300048,-19 3.88853,-14.30134 16.105355,-51.9344 17.188865,-52.94908 1.29755,-1.21512 0.2695,6.23575 -1.09679,7.94908 -0.4386,0.55 -1.112884,2.9125 -1.498413,5.25 -0.385529,2.3375 -1.069182,4.25 -1.519227,4.25 -0.450045,0 -1.127649,2.2495 -1.505786,4.99888 -0.378138,2.74939 -1.056209,5.22675 -1.506826,5.50524 -0.450617,0.2785 -1.134338,2.4165 -1.51938,4.75112 -0.385043,2.33462 -1.047236,4.69476 -1.47154,5.24476 -0.424304,0.55 -1.074633,2.575 -1.445174,4.5 -0.645985,3.35596 -1.77734,6.5082 -3.673905,10.23643 C 86.397498,764.19147 86,765.85241 86,766.92741 c 0,1.07501 -0.418506,2.21321 -0.930013,2.52934 -0.511507,0.31612 -1.238358,3.04268 -1.615223,6.05901 C 83.077898,778.53209 82.413631,781 81.978615,781 c -0.435017,0 -1.100324,2.2495 -1.478461,4.99888 -0.378138,2.74939 -1.06387,5.23148 -1.523851,5.51577 -0.459981,0.28428 -1.144674,2.98478 -1.521539,6.00111 C 77.077898,800.53209 76.429378,803 76.013607,803 c -0.41577,0 -1.051965,2.23151 -1.413767,4.9589 -0.361802,2.7274 -1.035462,5.1923 -1.497023,5.47756 -0.46156,0.28526 -1.13656,2.76026 -1.5,5.5 -0.363439,2.73974 -1.038439,5.21474 -1.5,5.5 -0.46156,0.28526 -1.13656,2.76026 -1.5,5.5 -0.363439,2.73974 -1.038439,5.21474 -1.5,5.5 -0.46156,0.28526 -1.152445,2.88 -1.535299,5.7661 -0.382854,2.88609 -1.056395,5.70869 -1.496756,6.27244 -0.440362,0.56375 -1.035057,2.87373 -1.321546,5.13329 -0.286488,2.25956 -1.213703,5.63456 -2.060478,7.5 -0.846774,1.86544 -1.850111,4.96671 -2.229637,6.89171 -0.379525,1.925 -1.031319,3.95 -1.448429,4.5 -0.417111,0.55 -1.066148,3.12701 -1.442305,5.72669 -0.376157,2.59968 -1.063644,4.96137 -1.527749,5.24821 -0.464105,0.28683 -1.15729,3.22232 -1.54041,6.52331 C 52.117088,892.29919 51.455935,895 51.030979,895 c -0.424955,0 -1.076566,2.68629 -1.448023,5.96954 -0.371458,3.28325 -1.062425,6.20875 -1.535482,6.50112 -0.473058,0.29237 -1.16949,2.78107 -1.547628,5.53046 C 46.121709,915.7505 45.456402,918 45.021385,918 c -0.435016,0 -1.099283,2.46791 -1.476149,5.48424 -0.376865,3.01633 -1.044402,5.70623 -1.483415,5.97755 -0.439013,0.27133 -1.095564,2.73493 -1.459004,5.47467 -0.363439,2.73974 -1.055595,5.22534 -1.538123,5.52356 -0.482529,0.29822 -1.183597,2.76907 -1.557928,5.49079 C 37.132434,948.67252 36.229389,951.39466 35.5,952 c -0.729389,0.60534 -1.632503,3.32798 -2.006919,6.05031 -0.639969,4.65313 -2.487232,7.01926 -2.498027,3.19969 z M 238.42364,912.5 c 0.30489,-2.2 0.5593,-5.0125 0.56535,-6.25 0.006,-1.2375 0.5121,-2.25 1.12455,-2.25 1.2929,0 0.30092,8.56552 -1.27392,11 -0.67527,1.04388 -0.80177,0.28368 -0.41598,-2.5 z m 3.03505,-14.10761 C 241.85936,895.70157 242.55294,893.05 243,892.5 c 0.44706,-0.55 1.13187,-3.14303 1.5218,-5.7623 0.38994,-2.61926 1.06489,-4.98226 1.4999,-5.25111 0.43501,-0.26885 1.10025,-2.73782 1.4783,-5.48659 0.37805,-2.74877 1.06921,-5.23376 1.53591,-5.52219 0.46669,-0.28844 1.15063,-2.53894 1.51986,-5.00112 C 250.92499,863.01451 251.5749,861 252,861 c 0.4251,0 1.09112,-2.1375 1.48004,-4.75 0.38892,-2.6125 1.06306,-5.2 1.49807,-5.75 0.43502,-0.55 1.12513,-2.56023 1.53357,-4.46718 0.40845,-1.90694 1.12507,-4.15694 1.59249,-5 0.46742,-0.84305 1.32754,-3.44532 1.91139,-5.78282 0.58384,-2.3375 1.45196,-4.25 1.92915,-4.25 0.47719,0 1.17707,-2.25 1.55529,-5 0.37822,-2.75 1.04435,-5 1.48029,-5 0.43594,0 1.09472,-2.01451 1.46394,-4.47669 0.36923,-2.46218 1.05617,-4.71454 1.52654,-5.00524 0.47036,-0.2907 1.15891,-2.32619 1.53012,-4.52331 C 269.87209,804.79764 270.54669,803 271,803 c 0.45331,0 1.12831,-1.8 1.5,-4 0.37169,-2.2 1.03616,-4 1.47661,-4 0.44044,0 1.09628,-1.575 1.45741,-3.5 0.36113,-1.925 1.0287,-3.5 1.48348,-3.5 0.45479,0 1.11472,-1.8 1.46651,-4 0.35179,-2.2 1.04855,-4 1.54835,-4 0.4998,0 1.22149,-1.424 1.60376,-3.16445 0.38227,-1.74045 1.82868,-5.22795 3.21425,-7.75 1.38557,-2.52205 3.02106,-5.59454 3.63443,-6.82775 1.00982,-2.03033 2.6152,-3.07822 2.6152,-1.70704 0,0.30292 -3.3152,8.06542 -7.36712,17.25 -7.1671,16.24586 -15.15716,37.49178 -19.44279,51.69924 -1.16134,3.85 -3.91133,12.625 -6.1111,19.5 -6.19596,19.36439 -13.82403,45.09745 -14.60251,49.26105 -1.09251,5.84319 -2.88567,5.95991 -2.01779,0.13134 z M 291,757.90113 c 0,-0.60438 0.71088,-2.74188 1.57972,-4.75 2.27547,-5.25916 14.78202,-30.55808 15.3996,-31.15113 0.28637,-0.275 1.36782,-2.16666 2.40322,-4.2037 1.03539,-2.03703 2.72289,-4.60572 3.75,-5.70819 1.0271,-1.10246 1.8668,-2.3608 1.86599,-2.7963 C 315.99554,707.68688 326.28654,688 327.12848,688 c 0.47934,0 0.91638,-3.0375 0.9712,-6.75 0.0724,-4.90053 0.31905,-6.06501 0.90032,-4.25 2.07177,6.46911 1.22519,9.04756 -9.52159,29 -5.77669,10.725 -14.32503,27.0375 -18.9963,36.25 -4.67128,9.2125 -8.71573,16.75 -8.98767,16.75 C 291.2225,759 291,758.50551 291,757.90113 Z M 102.73051,708.39718 c -0.33155,-0.33156 -0.069,-1.79406 0.58333,-3.25 0.81589,-1.82084 1.35114,-14.66524 1.71466,-41.14718 l 0.52851,-38.5 0.22149,38.625 c 0.24145,42.104 -0.11009,47.21008 -3.04799,44.27218 z M 328.25218,669.5 c 0.0111,-2.2 0.21589,-2.98225 0.45508,-1.73834 0.23919,1.24391 0.23011,3.04391 -0.0202,4 -0.25029,0.95609 -0.446,-0.0617 -0.4349,-2.26166 z m -1.52553,-7.16287 c -0.27449,-0.46042 -0.81956,-3.65044 -1.21126,-7.08892 -0.3917,-3.43849 -1.0919,-6.48648 -1.55601,-6.77331 -0.4641,-0.28684 -1.14675,-2.54156 -1.51699,-5.01051 -0.37024,-2.46894 -1.03209,-4.71081 -1.47077,-4.98193 -0.43868,-0.27112 -1.1013,-2.29058 -1.47251,-4.4877 C 319.12791,631.79764 318.46384,630 318.02339,630 c -0.44044,0 -1.11719,-1.68647 -1.50388,-3.74771 -0.38669,-2.06124 -1.02914,-3.97374 -1.42767,-4.25 C 314.01027,621.25255 309,610.80848 309,609.30366 309,608.58665 308.55857,608 308.01905,608 c -0.53952,0 -1.2633,-1.125 -1.60841,-2.5 -0.3451,-1.375 -1.02867,-2.5 -1.51905,-2.5 C 304.40122,603 304,602.53178 304,601.95951 c 0,-1.06526 -3.31528,-6.02098 -6,-8.96888 C 290.05936,584.27158 286.66357,581 285.55411,581 c -0.72007,0 -1.84541,-0.64607 -2.50076,-1.43572 -0.65535,-0.78965 -2.51045,-1.7254 -4.12245,-2.07946 -1.61199,-0.35405 -2.9309,-1.03758 -2.9309,-1.51896 0,-0.48138 -1.575,-1.17071 -3.5,-1.53184 -1.925,-0.36113 -3.5,-1.01429 -3.5,-1.45147 0,-0.43718 -2.2495,-1.10426 -4.99888,-1.4824 -2.74939,-0.37813 -5.21771,-1.04158 -5.48516,-1.47432 -0.26745,-0.43274 -4.31795,-1.10598 -9.00111,-1.49609 C 244.83168,568.13964 241,567.469 241,567.03944 c 0,-0.42956 -3.13965,-1.09039 -6.97701,-1.46852 -3.83735,-0.37812 -7.20609,-1.05817 -7.48609,-1.51122 -0.28,-0.45305 -3.55285,-1.14762 -7.273,-1.54349 -3.72014,-0.39586 -7.2139,-1.01145 -7.7639,-1.36798 -1.83326,-1.18838 -14.8968,-3.33312 -23.25,-3.81714 -4.91278,-0.28467 -8.25,-0.91226 -8.25,-1.55149 0,-0.7288 2.96985,-0.88827 9.25,-0.49669 8.50993,0.53062 20.17351,2.71124 49.25,9.2078 6.05,1.35175 13.475,2.75888 16.5,3.12696 7.44113,0.90541 19.01767,4.75707 27.16374,9.03772 11.60763,6.09963 21.20908,16.92068 29.14283,32.84461 8.59126,17.2436 19.20181,50.39162 16.87498,52.71845 -0.5257,0.5257 -1.1804,0.57911 -1.4549,0.11868 z M 106.25477,608.81749 c 2.11434,-13.02915 25.41411,-37.17022 47.23447,-48.93997 6.21454,-3.35208 8.73166,-4.12409 14.98973,-4.59738 5.31116,-0.40169 7.52103,-0.23258 7.52103,0.57552 0,0.73071 -2.14743,1.14434 -5.94098,1.14434 -3.26754,0 -6.2191,0.45 -6.55902,1 -0.33992,0.55 -1.31648,1 -2.17014,1 -0.85366,0 -5.36031,2.3625 -10.01478,5.25 -4.65448,2.8875 -9.61904,5.925 -11.03237,6.75 -1.41333,0.825 -4.0186,2.85 -5.7895,4.5 -1.7709,1.65 -4.53211,4.125 -6.13604,5.5 -1.60392,1.375 -4.69365,4.75 -6.86606,7.5 -2.1724,2.75 -4.48836,5.56138 -5.14656,6.24752 C 114.11511,597.07158 108,607.75199 108,609.32179 c 0,0.8581 -0.52023,1.8817 -1.15607,2.27467 -0.82703,0.51113 -0.99472,-0.27982 -0.58916,-2.77897 z M 197.5,280.53899 c -17.86782,-2.82118 -31.69493,-9.04374 -41.32635,-18.59795 -11.16083,-11.07136 -18.63416,-24.49181 -21.6669,-38.90897 -0.82885,-3.94022 -2.04741,-8.14684 -2.70792,-9.34805 -0.6605,-1.20121 -1.52337,-8.25902 -1.9175,-15.68402 -0.39412,-7.425 -1.2656,-15.075 -1.93661,-17 -0.67102,-1.925 -4.64558,-9.52462 -8.83237,-16.88805 -8.94806,-15.73722 -19.322088,-34.8478 -22.192514,-40.88209 -2.862349,-6.01732 -3.892696,-13.27538 -4.585109,-32.298861 -0.918909,-25.246234 1.12966,-34.443519 11.064923,-49.677227 5.06849,-7.771509 7.15233,-9.999426 13.06532,-13.968655 C 128.56424,19.163202 138.68972,15.255852 155,12.414718 c 14.69604,-2.5599438 37.60409,-4.5107982 44,-3.7470496 8.19848,0.9789966 16.93736,2.6539406 23.09637,4.4267806 10.37021,2.985018 22.04743,12.891357 28.62754,24.286113 1.87435,3.245808 7.64472,18.829729 11.66496,31.503314 L 266,80.267752 265.9844,164.38388 c -0.0169,90.79429 -0.0801,91.9832 -5.28078,99.29256 -3.4019,4.78124 -12.37676,10.72336 -19.98272,13.23027 -3.42149,1.12772 -12.07088,2.73096 -19.22088,3.56277 -14.87699,1.73073 -13.50388,1.72676 -24,0.0695 z M 215.68721,224.75 c 2.257,-2.3375 5.16319,-6.275 6.45821,-8.75 2.35337,-4.49769 2.35473,-4.52235 2.64241,-48 l 0.28783,-43.5 -5.58981,-16.5 C 212.47005,87.290719 207.52915,77.043057 201.10326,69.873623 195.78736,63.942614 187.51768,58 184.58007,58 c -2.88048,0 -15.62461,5.989588 -22.80206,10.716694 -6.79101,4.472594 -13.9303,11.61805 -16.88976,16.904339 -1.60592,2.868558 -1.57591,2.942239 8.30136,20.378967 17.6755,31.20326 18.03445,32.10036 19.43065,48.56133 2.38961,28.17311 9.67172,47.24302 24.09525,63.09901 3.73498,4.10591 12.76332,11.33966 14.15288,11.33966 0.39336,0 2.56183,-1.9125 4.81882,-4.25 z" id="SvgjsPath1000"></path>
    </g>
  </g>
</svg><style>@media (prefers-color-scheme: light) { :root { filter: none; } }
@media (prefers-color-scheme: dark) { :root { filter: invert(100%); } }
</style></svg>